<?xml version="1.0" encoding="UTF-8" standalone="no"?>
<svg
   width="161.002"
   height="55.198"
   viewBox="0 0 161.002 55.198"
   version="1.1"
   id="svg41"
   sodipodi:docname="bitzburg-logo.svg"
   inkscape:version="1.1.1 (3bf5ae0d25, 2021-09-20)"
   xmlns:inkscape="http://www.inkscape.org/namespaces/inkscape"
   xmlns:sodipodi="http://sodipodi.sourceforge.net/DTD/sodipodi-0.dtd"
   xmlns="http://www.w3.org/2000/svg"
   xmlns:svg="http://www.w3.org/2000/svg">
  <defs
     id="defs45" />
  <sodipodi:namedview
     id="namedview43"
     pagecolor="#ffffff"
     bordercolor="#666666"
     borderopacity="1.0"
     inkscape:pageshadow="2"
     inkscape:pageopacity="0.0"
     inkscape:pagecheckerboard="0"
     showgrid="false"
     inkscape:zoom="6.571347"
     inkscape:cx="69.62043"
     inkscape:cy="51.891949"
     inkscape:window-width="1440"
     inkscape:window-height="838"
     inkscape:window-x="-8"
     inkscape:window-y="-8"
     inkscape:window-maximized="1"
     inkscape:current-layer="svg41" />
  <g
     id="bitzburg-llp-logo-final-white"
     transform="translate(0 0)">
    <circle
       id="Ellipse_11"
       data-name="Ellipse 11"
       cx="9.859"
       cy="9.859"
       r="9.859"
       transform="translate(4.728 17.406)"
       fill="#fff" />
    <circle
       id="Ellipse_12"
       data-name="Ellipse 12"
       cx="9.859"
       cy="9.859"
       r="9.859"
       transform="translate(79.575 17.406)"
       fill="#fff" />
    <g
       id="Group_4"
       data-name="Group 4">
      <g
         id="Group_3"
         data-name="Group 3">
        <g
           id="Group_2"
           data-name="Group 2">
          <path
             id="Path_76"
             data-name="Path 76"
             d="M39.633,232.49a14.515,14.515,0,0,0-8.771,3.7V222.211a2.433,2.433,0,0,0-2.792-2.406A2.481,2.481,0,0,0,26,222.287v24.161c0,.073,0,.146.009.218a14.543,14.543,0,0,0,4.267,10.691L27.733,259.9a1.015,1.015,0,0,0,.718,1.733H40.587l0,0c.317,0,.636-.007.958-.028a14.588,14.588,0,1,0-1.907-29.113Zm.067,24.242a9.726,9.726,0,1,1,10.571-10.574A9.748,9.748,0,0,1,39.7,256.732Z"
             transform="translate(-26 -219.78)"
             fill="#42afff" />
          <path
             id="Path_77"
             data-name="Path 77"
             d="M908.034,232.49a14.515,14.515,0,0,0-8.771,3.7V222.211a2.433,2.433,0,0,0-2.792-2.406,2.481,2.481,0,0,0-2.071,2.481v24.161c0,.073,0,.146.01.218a14.543,14.543,0,0,0,4.267,10.691l-2.543,2.544a1.015,1.015,0,0,0,.718,1.733h12.135l0,0c.317,0,.636-.007.958-.028a14.588,14.588,0,0,0-1.906-29.113Zm.066,24.242a9.726,9.726,0,1,1,10.571-10.574A9.748,9.748,0,0,1,908.1,256.732Z"
             transform="translate(-819.553 -219.78)"
             fill="#42afff" />
          <path
             id="Path_78"
             data-name="Path 78"
             d="M385.716,402.8c-1.868,0-3.736,1.114-3.736,3.341,0,2.191,1.869,3.3,3.736,3.3,1.832,0,3.7-1.114,3.7-3.3A3.415,3.415,0,0,0,385.716,402.8Z"
             transform="translate(-351.298 -387.026)"
             fill="#42afff" />
          <path
             id="Path_79"
             data-name="Path 79"
             d="M392.542,497.83h-5.3a.674.674,0,0,0-.674.674v16.111a.674.674,0,0,0,.674.674h5.3a.674.674,0,0,0,.674-.674V498.5A.675.675,0,0,0,392.542,497.83Z"
             transform="translate(-355.493 -473.865)"
             fill="#42afff" />
          <path
             id="Path_80"
             data-name="Path 80"
             d="M507.333,454.347a.445.445,0,0,0-.619-.277,3.647,3.647,0,0,1-1.478.353,1.576,1.576,0,0,1-1.76-1.724v-5.373a.447.447,0,0,1,.447-.447h3.13a.447.447,0,0,0,.446-.447v-4.171a.447.447,0,0,0-.446-.447h-3.093a.447.447,0,0,1-.447-.447v-4.192a.446.446,0,0,0-.5-.444l-5.68.621a.447.447,0,0,0-.4.444v3.571a.447.447,0,0,1-.447.447h-1.944a.447.447,0,0,0-.447.447v4.171a.447.447,0,0,0,.447.447h1.944a.447.447,0,0,1,.447.447V452.7c-.108,5.568,3.053,7.185,6.574,7.185a10.445,10.445,0,0,0,4.783-1.014.443.443,0,0,0,.216-.52Z"
             transform="translate(-453.755 -418.029)"
             fill="#42afff" />
          <path
             id="Path_81"
             data-name="Path 81"
             d="M691,506.579h-5.225a.639.639,0,0,1-.527-1l5.955-8.679a.637.637,0,0,0,.112-.361v-1.39a.639.639,0,0,0-.639-.639H677.12a.639.639,0,0,0-.639.639v3.967a.639.639,0,0,0,.639.639h4.552a.639.639,0,0,1,.529,1l-6.292,9.294a.638.638,0,0,0-.109.358v1.213a.639.639,0,0,0,.639.639H691a.639.639,0,0,0,.639-.639v-4.4A.639.639,0,0,0,691,506.579Z"
             transform="translate(-619.794 -470.831)"
             fill="#42afff" />
          <path
             id="Path_82"
             data-name="Path 82"
             d="M1270.9,495.41h-4.852a.667.667,0,0,0-.667.667v8.272a2.8,2.8,0,0,1-2.889,3.127c-1.156,0-2.345-.714-2.345-2.787v-8.612a.668.668,0,0,0-.667-.667h-4.92a.667.667,0,0,0-.667.667v8.646c0,5.982,3.025,7.852,6.56,7.886a7.068,7.068,0,0,0,4.414-1.4.668.668,0,0,1,1.077.422.667.667,0,0,0,.66.569h4.3a.667.667,0,0,0,.667-.667V496.077A.667.667,0,0,0,1270.9,495.41Z"
             transform="translate(-1148.059 -471.654)"
             fill="#42afff" />
          <path
             id="Path_83"
             data-name="Path 83"
             d="M1511.6,490.68a4.7,4.7,0,0,0-3.3,1.233.623.623,0,0,1-1.05-.312l0-.017a.62.62,0,0,0-.608-.5h-4.481a.621.621,0,0,0-.62.621v15.55a.62.62,0,0,0,.62.621h5.014a.621.621,0,0,0,.621-.621v-8.115c0-2.21,1.326-3.161,2.889-3.161a3.827,3.827,0,0,1,2.274.623.624.624,0,0,0,.887-.214l1.943-3.492a.618.618,0,0,0-.128-.765A6.185,6.185,0,0,0,1511.6,490.68Z"
             transform="translate(-1374.364 -467.331)"
             fill="#42afff" />
          <path
             id="Path_84"
             data-name="Path 84"
             d="M1691.367,490.7a.059.059,0,0,0-.011-.086s-5.662-1.632-6.242-.918a.065.065,0,0,1-.069.022,10.238,10.238,0,0,0-3.427-.632c-5.2,0-9.348,3.331-9.348,8.6,0,5.2,3.705,8.464,9.348,8.464,2.043,0,2.855.821,3,1.875a2.47,2.47,0,0,1-2.256,2.742c-1.77.159-3.706-.069-3.95-2.462a.759.759,0,0,0-.75-.693H1673.2a.715.715,0,0,0-.718.708c.005,4.711,3.33,7.551,9.064,7.551,4.793,0,9.518-2.039,9.518-7.478,0-.91-.2-3.255-3.215-5.017a.062.062,0,0,1-.006-.1,7.057,7.057,0,0,0,2.983-5.519,6.293,6.293,0,0,0-1.564-4.483.059.059,0,0,1,0-.076Zm-9.748,10.284a3.384,3.384,0,0,1,0-6.764,3.275,3.275,0,0,1,3.161,3.467A3.032,3.032,0,0,1,1681.619,500.988Z"
             transform="translate(-1530.379 -465.878)"
             fill="#42afff" />
        </g>
      </g>
    </g>
    <g
       id="Group_5"
       data-name="Group 5"
       transform="translate(0 43.402)">
      <path
         id="Path_85"
         data-name="Path 85"
         d="M28.44,732.688a2.207,2.207,0,0,1-1.312-.39,2.429,2.429,0,0,1-.839-1.093,4.341,4.341,0,0,1-.29-1.66v-.124a4.964,4.964,0,0,1,.29-1.778,2.572,2.572,0,0,1,.842-1.172,2.131,2.131,0,0,1,1.32-.416,2.293,2.293,0,0,1,1.161.284,2.319,2.319,0,0,1,.813.792v-3.184l-.963-.077v-.52h1.671v8.625l.963.077v.514H30.5l-.053-.9a2.191,2.191,0,0,1-.821.756A2.487,2.487,0,0,1,28.44,732.688Zm.129-.608a1.9,1.9,0,0,0,1.855-1.164v-2.983a2.274,2.274,0,0,0-.673-.913,1.809,1.809,0,0,0-1.17-.358,1.552,1.552,0,0,0-1.034.348,2.116,2.116,0,0,0-.623.969,4.51,4.51,0,0,0-.209,1.441v.124a3.254,3.254,0,0,0,.464,1.846A1.565,1.565,0,0,0,28.569,732.08Z"
         transform="translate(-26 -723.349)"
         fill="#fff" />
      <path
         id="Path_86"
         data-name="Path 86"
         d="M111.782,761.373a2.631,2.631,0,0,1-1.447-.4,2.736,2.736,0,0,1-.981-1.1,3.58,3.58,0,0,1-.354-1.627v-.325a3.642,3.642,0,0,1,.354-1.633,2.877,2.877,0,0,1,.96-1.131,2.337,2.337,0,0,1,1.35-.413,2.559,2.559,0,0,1,1.344.336,2.21,2.21,0,0,1,.857.948,3.255,3.255,0,0,1,.3,1.438v.6h-4.43l-.012.259a3.028,3.028,0,0,0,.263,1.264,2.113,2.113,0,0,0,.721.874,1.855,1.855,0,0,0,1.078.319,2.715,2.715,0,0,0,1.06-.192,2.644,2.644,0,0,0,.807-.523l.3.484a3.011,3.011,0,0,1-2.168.822Zm-2-3.9h3.674V757.3a2.278,2.278,0,0,0-.215-1.007,1.674,1.674,0,0,0-.615-.7,1.752,1.752,0,0,0-.959-.254,1.6,1.6,0,0,0-.916.275,2.08,2.08,0,0,0-.665.751,2.826,2.826,0,0,0-.316,1.078Z"
         transform="translate(-101.846 -752.034)"
         fill="#fff" />
      <path
         id="Path_87"
         data-name="Path 87"
         d="M185.569,761.373a4.179,4.179,0,0,1-1.25-.18,4.126,4.126,0,0,1-1.083-.523l-.006-1.312h.579l.1.939a2.2,2.2,0,0,0,.762.384,3.3,3.3,0,0,0,.9.118,1.875,1.875,0,0,0,1.223-.348,1.027,1.027,0,0,0,.045-1.621,2.96,2.96,0,0,0-1.332-.558,4.06,4.06,0,0,1-1.657-.662,1.4,1.4,0,0,1-.511-1.152,1.491,1.491,0,0,1,.271-.874,1.846,1.846,0,0,1,.771-.617,2.806,2.806,0,0,1,1.173-.228,3.357,3.357,0,0,1,1.223.2,2.814,2.814,0,0,1,.892.546l.029,1.312h-.579l-.083-.945a1.893,1.893,0,0,0-.621-.393,2.377,2.377,0,0,0-.863-.139,1.66,1.66,0,0,0-1.111.334,1,1,0,0,0-.39.777,1.012,1.012,0,0,0,.122.505,1.04,1.04,0,0,0,.467.387,4.877,4.877,0,0,0,1.007.325,4.059,4.059,0,0,1,1.737.735,1.514,1.514,0,0,1,.538,1.2,1.592,1.592,0,0,1-.605,1.282A2.672,2.672,0,0,1,185.569,761.373Z"
         transform="translate(-169.678 -752.034)"
         fill="#fff" />
      <path
         id="Path_88"
         data-name="Path 88"
         d="M251.15,732.555v-.514l.963-.077v-5.2l-.963-.077v-.52h1.671v5.8l.963.077v.514H251.15Zm.88-8.193V723.34h.791v1.022Z"
         transform="translate(-231.744 -723.34)"
         fill="#fff" />
      <path
         id="Path_89"
         data-name="Path 89"
         d="M297.764,763.83a4.73,4.73,0,0,1-.987-.112,4.036,4.036,0,0,1-.91-.3l.189-.59a3.937,3.937,0,0,0,.8.284,3.844,3.844,0,0,0,.895.1,1.694,1.694,0,0,0,1.368-.54,2.251,2.251,0,0,0,.458-1.5v-.779a2.212,2.212,0,0,1-.818.727,2.478,2.478,0,0,1-1.16.259,2.218,2.218,0,0,1-1.318-.391,2.474,2.474,0,0,1-.845-1.1,4.265,4.265,0,0,1-.3-1.657v-.124a4.867,4.867,0,0,1,.3-1.778,2.614,2.614,0,0,1,.848-1.172,2.139,2.139,0,0,1,1.326-.416,2.2,2.2,0,0,1,2,1.122l.077-1h.6v6.309a3.136,3.136,0,0,1-.3,1.418,2.14,2.14,0,0,1-.865.921A2.69,2.69,0,0,1,297.764,763.83Zm-.035-3.066a1.866,1.866,0,0,0,1.849-1.193v-2.924a2.317,2.317,0,0,0-.662-.93,1.765,1.765,0,0,0-1.176-.369,1.566,1.566,0,0,0-1.04.352,2.136,2.136,0,0,0-.632.972,4.412,4.412,0,0,0-.213,1.435v.124a3.226,3.226,0,0,0,.47,1.846A1.59,1.59,0,0,0,297.728,760.765Zm2.416-5.3-.23-.609h1.193v.514Z"
         transform="translate(-271.943 -752.034)"
         fill="#fff" />
      <path
         id="Path_90"
         data-name="Path 90"
         d="M373.69,761.249v-.514l.963-.077v-5.2l-.963-.077v-.52h1.589l.059,1.146a2.336,2.336,0,0,1,.827-.933,2.262,2.262,0,0,1,1.241-.331,1.965,1.965,0,0,1,1.582.635,3.016,3.016,0,0,1,.544,1.987v3.3l.963.077v.514H377.86v-.514l.963-.077v-3.291a2.344,2.344,0,0,0-.408-1.565,1.48,1.48,0,0,0-1.164-.455,1.73,1.73,0,0,0-1.252.443,2.351,2.351,0,0,0-.638,1.158v3.71l.963.077v.514Z"
         transform="translate(-343.723 -752.034)"
         fill="#fff" />
      <path
         id="Path_91"
         data-name="Path 91"
         d="M503.44,820.053v-.963h.809v.963Z"
         transform="translate(-462.29 -810.837)"
         fill="#fff" />
      <path
         id="Path_92"
         data-name="Path 92"
         d="M568.45,732.688a2.206,2.206,0,0,1-1.312-.39,2.429,2.429,0,0,1-.839-1.093,4.34,4.34,0,0,1-.29-1.66v-.124a4.963,4.963,0,0,1,.29-1.778,2.572,2.572,0,0,1,.842-1.172,2.131,2.131,0,0,1,1.32-.416,2.293,2.293,0,0,1,1.161.284,2.319,2.319,0,0,1,.813.792v-3.184l-.963-.077v-.52h1.671v8.625l.963.077v.514h-1.594l-.053-.9a2.191,2.191,0,0,1-.821.756A2.487,2.487,0,0,1,568.45,732.688Zm.129-.608a1.9,1.9,0,0,0,1.855-1.164v-2.983a2.274,2.274,0,0,0-.673-.913,1.809,1.809,0,0,0-1.17-.358,1.552,1.552,0,0,0-1.034.348,2.117,2.117,0,0,0-.623.969,4.511,4.511,0,0,0-.209,1.441v.124a3.254,3.254,0,0,0,.464,1.846A1.565,1.565,0,0,0,568.579,732.08Z"
         transform="translate(-519.467 -723.349)"
         fill="#fff" />
      <path
         id="Path_93"
         data-name="Path 93"
         d="M651.792,761.373a2.63,2.63,0,0,1-1.447-.4,2.736,2.736,0,0,1-.981-1.1,3.58,3.58,0,0,1-.354-1.627v-.325a3.643,3.643,0,0,1,.354-1.633,2.877,2.877,0,0,1,.96-1.131,2.337,2.337,0,0,1,1.35-.413,2.559,2.559,0,0,1,1.344.336,2.21,2.21,0,0,1,.857.948,3.256,3.256,0,0,1,.3,1.438v.6h-4.43l-.012.259a3.029,3.029,0,0,0,.263,1.264,2.113,2.113,0,0,0,.721.874,1.855,1.855,0,0,0,1.078.319,2.715,2.715,0,0,0,1.06-.192,2.644,2.644,0,0,0,.807-.523l.3.484a3.011,3.011,0,0,1-2.168.822Zm-2-3.9h3.674V757.3a2.277,2.277,0,0,0-.216-1.007,1.674,1.674,0,0,0-.615-.7,1.752,1.752,0,0,0-.959-.254,1.6,1.6,0,0,0-.916.275,2.081,2.081,0,0,0-.665.751,2.826,2.826,0,0,0-.316,1.078Z"
         transform="translate(-595.313 -752.034)"
         fill="#fff" />
      <path
         id="Path_94"
         data-name="Path 94"
         d="M721.59,761.258v-.514l.963-.077v-5.2l-.963-.077v-.52h1.583l.077.975.006.172a2.262,2.262,0,0,1,.739-.93,1.87,1.87,0,0,1,1.117-.334,2.285,2.285,0,0,1,.34.027,1.525,1.525,0,0,1,.263.056l-.089.65-.656-.041a1.491,1.491,0,0,0-1.111.39,2.148,2.148,0,0,0-.6,1.081v3.757l.963.077v.514H721.59Z"
         transform="translate(-661.638 -752.043)"
         fill="#fff" />
      <path
         id="Path_95"
         data-name="Path 95"
         d="M778.82,732.555v-.514l.963-.077v-5.2l-.963-.077v-.52h1.671v5.8l.963.077v.514H778.82Zm.88-8.193V723.34h.791v1.022Z"
         transform="translate(-713.935 -723.34)"
         fill="#fff" />
      <path
         id="Path_96"
         data-name="Path 96"
         d="M822.261,762.492l-2.322-5.831-.679-.041v-.52h2.25v.52l-.839.053,1.654,4.217.236.7h.035l.254-.7,1.6-4.217-.851-.053v-.52h2.25v.52l-.691.041-2.262,5.831Z"
         transform="translate(-750.889 -753.276)"
         fill="#fff" />
      <path
         id="Path_97"
         data-name="Path 97"
         d="M905.522,761.373a2.631,2.631,0,0,1-1.447-.4,2.735,2.735,0,0,1-.981-1.1,3.58,3.58,0,0,1-.354-1.627v-.325a3.642,3.642,0,0,1,.354-1.633,2.876,2.876,0,0,1,.96-1.131,2.337,2.337,0,0,1,1.35-.413,2.559,2.559,0,0,1,1.344.336,2.21,2.21,0,0,1,.857.948,3.255,3.255,0,0,1,.3,1.438v.6h-4.43l-.012.259a3.028,3.028,0,0,0,.263,1.264,2.112,2.112,0,0,0,.721.874,1.855,1.855,0,0,0,1.078.319,2.715,2.715,0,0,0,1.06-.192,2.643,2.643,0,0,0,.807-.523l.3.484a3.011,3.011,0,0,1-2.168.822Zm-2-3.9h3.674V757.3a2.277,2.277,0,0,0-.215-1.007,1.669,1.669,0,0,0-.615-.7,1.752,1.752,0,0,0-.959-.254,1.6,1.6,0,0,0-.916.275,2.08,2.08,0,0,0-.665.751,2.826,2.826,0,0,0-.316,1.078Z"
         transform="translate(-827.174 -752.034)"
         fill="#fff" />
      <path
         id="Path_98"
         data-name="Path 98"
         d="M1011.71,737.879a3.241,3.241,0,0,1-1.418-.287,2.175,2.175,0,0,1-.925-.806,2.23,2.23,0,0,1-.328-1.217,2.082,2.082,0,0,1,.4-1.246,5.463,5.463,0,0,1,1.155-1.128c.032-.028.063-.053.095-.077l.095-.071a5.716,5.716,0,0,1-.7-1.078,2.3,2.3,0,0,1-.228-1,2.173,2.173,0,0,1,.236-1.054,1.577,1.577,0,0,1,.677-.662,2.268,2.268,0,0,1,1.054-.228,2.075,2.075,0,0,1,.981.219,1.619,1.619,0,0,1,.641.6,1.639,1.639,0,0,1,.228.863,1.569,1.569,0,0,1-.266.919,3.464,3.464,0,0,1-.768.758l-.939.733,2.434,2.836a3.508,3.508,0,0,0,.443-.94,3.759,3.759,0,0,0,.159-1.1h.656a4.275,4.275,0,0,1-.215,1.389,3.824,3.824,0,0,1-.623,1.146l1.093,1.282-.012.029h-.815l-.727-.839a4.284,4.284,0,0,1-1.045.689A3.127,3.127,0,0,1,1011.71,737.879Zm0-.59a2.669,2.669,0,0,0,1.06-.219,2.985,2.985,0,0,0,.925-.626l-2.523-2.924-.271.207a3.6,3.6,0,0,0-.919,1.007,1.808,1.808,0,0,0-.234.836,1.641,1.641,0,0,0,.505,1.226A2,2,0,0,0,1011.71,737.289Zm-.39-4.614,1.039-.791a1.589,1.589,0,0,0,.493-.552,1.385,1.385,0,0,0,.145-.623,1.044,1.044,0,0,0-.31-.774,1.174,1.174,0,0,0-.865-.307,1.155,1.155,0,0,0-.93.384,1.416,1.416,0,0,0-.328.951,2.044,2.044,0,0,0,.186.821A3.878,3.878,0,0,0,1011.32,732.675Z"
         transform="translate(-924.312 -728.54)"
         fill="#fff" />
      <path
         id="Path_99"
         data-name="Path 99"
         d="M1128.733,763.706v-.52l.94-.077v-7.655l-.963-.077v-.52h1.553l.089.975a2.271,2.271,0,0,1,.824-.807,2.376,2.376,0,0,1,1.19-.286,2.13,2.13,0,0,1,1.32.416,2.594,2.594,0,0,1,.845,1.172,4.923,4.923,0,0,1,.292,1.778v.124a4.311,4.311,0,0,1-.292,1.66,2.47,2.47,0,0,1-.839,1.093,2.193,2.193,0,0,1-1.308.39,2.6,2.6,0,0,1-1.184-.254,2.149,2.149,0,0,1-.818-.708v2.7l.987.077v.52h-2.636Zm3.486-2.924a1.6,1.6,0,0,0,1.408-.7,3.2,3.2,0,0,0,.482-1.855v-.124a4.312,4.312,0,0,0-.219-1.435,2.166,2.166,0,0,0-.641-.972,1.576,1.576,0,0,0-1.043-.352,1.807,1.807,0,0,0-1.167.354,2.169,2.169,0,0,0-.658.9v3.048a1.833,1.833,0,0,0,.685.83A2.049,2.049,0,0,0,1132.219,760.783Z"
         transform="translate(-1033.668 -752.034)"
         fill="#fff" />
      <path
         id="Path_100"
         data-name="Path 100"
         d="M1211.5,761.258v-.514l.963-.077v-5.2l-.963-.077v-.52h1.583l.077.975.006.172a2.263,2.263,0,0,1,.739-.93,1.87,1.87,0,0,1,1.117-.334,2.285,2.285,0,0,1,.339.027,1.526,1.526,0,0,1,.263.056l-.089.65-.656-.041a1.492,1.492,0,0,0-1.111.39,2.148,2.148,0,0,0-.6,1.081v3.757l.963.077v.514H1211.5Z"
         transform="translate(-1109.323 -752.043)"
         fill="#fff" />
      <path
         id="Path_101"
         data-name="Path 101"
         d="M1271.076,761.364a2.692,2.692,0,0,1-1.5-.411,2.739,2.739,0,0,1-.987-1.14,3.8,3.8,0,0,1-.352-1.669v-.195a3.782,3.782,0,0,1,.352-1.666,2.76,2.76,0,0,1,.987-1.14,2.891,2.891,0,0,1,2.978,0,2.769,2.769,0,0,1,.987,1.138,3.774,3.774,0,0,1,.352,1.669v.195a3.8,3.8,0,0,1-.352,1.672,2.735,2.735,0,0,1-.987,1.137A2.664,2.664,0,0,1,1271.076,761.364Zm0-.59a1.85,1.85,0,0,0,1.128-.348,2.217,2.217,0,0,0,.727-.945,3.383,3.383,0,0,0,.254-1.335v-.195a3.353,3.353,0,0,0-.254-1.329,2.219,2.219,0,0,0-.729-.945,2.027,2.027,0,0,0-2.275,0,2.192,2.192,0,0,0-.727.945,3.4,3.4,0,0,0-.251,1.329v.195a3.409,3.409,0,0,0,.251,1.339,2.195,2.195,0,0,0,.727.942A1.9,1.9,0,0,0,1271.076,760.774Z"
         transform="translate(-1161.172 -752.025)"
         fill="#fff" />
      <path
         id="Path_102"
         data-name="Path 102"
         d="M1345.77,761.194v-.514l.963-.077v-5.2l-.963-.077v-.52h1.594l.059,1.093a2.223,2.223,0,0,1,.813-.892,2.3,2.3,0,0,1,1.232-.319,1.845,1.845,0,0,1,1.932,1.477,2.392,2.392,0,0,1,.812-1.087,2.154,2.154,0,0,1,1.308-.4,1.926,1.926,0,0,1,1.58.683,3.29,3.29,0,0,1,.558,2.106V760.6l.963.077v.515h-2.641v-.515l.963-.077v-3.142a2.612,2.612,0,0,0-.416-1.677,1.434,1.434,0,0,0-1.155-.49,1.591,1.591,0,0,0-1.282.528,2.423,2.423,0,0,0-.538,1.338v3.45l.963.077v.514h-2.641v-.514l.963-.077v-3.148a2.582,2.582,0,0,0-.422-1.663,1.441,1.441,0,0,0-1.161-.5,1.691,1.691,0,0,0-1.214.414,2.151,2.151,0,0,0-.594,1.1v3.8l.963.077v.514h-2.637Z"
         transform="translate(-1232.02 -751.979)"
         fill="#fff" />
      <path
         id="Path_103"
         data-name="Path 103"
         d="M1484.1,761.364a2.692,2.692,0,0,1-1.5-.411,2.739,2.739,0,0,1-.987-1.14,3.8,3.8,0,0,1-.352-1.669v-.195a3.782,3.782,0,0,1,.352-1.666,2.76,2.76,0,0,1,.987-1.14,2.891,2.891,0,0,1,2.978,0,2.77,2.77,0,0,1,.987,1.138,3.773,3.773,0,0,1,.352,1.669v.195a3.793,3.793,0,0,1-.352,1.672,2.735,2.735,0,0,1-.987,1.137A2.665,2.665,0,0,1,1484.1,761.364Zm0-.59a1.851,1.851,0,0,0,1.128-.348,2.217,2.217,0,0,0,.727-.945,3.383,3.383,0,0,0,.254-1.335v-.195a3.355,3.355,0,0,0-.254-1.329,2.22,2.22,0,0,0-.729-.945,2.027,2.027,0,0,0-2.275,0,2.193,2.193,0,0,0-.726.945,3.4,3.4,0,0,0-.251,1.329v.195a3.409,3.409,0,0,0,.251,1.339,2.2,2.2,0,0,0,.726.942A1.894,1.894,0,0,0,1484.1,760.774Z"
         transform="translate(-1355.832 -752.025)"
         fill="#fff" />
      <path
         id="Path_104"
         data-name="Path 104"
         d="M1558.833,745.2a1.33,1.33,0,0,1-1.045-.416,1.988,1.988,0,0,1-.372-1.344v-4.171h-1.1v-.573h1.1V737.05h.708v1.642h1.489v.573h-1.489v4.171a1.467,1.467,0,0,0,.228.919.739.739,0,0,0,.6.28,2.868,2.868,0,0,0,.4-.027l.4-.056.106.508a2.992,2.992,0,0,1-.484.1A3.937,3.937,0,0,1,1558.833,745.2Z"
         transform="translate(-1424.413 -735.868)"
         fill="#fff" />
      <path
         id="Path_105"
         data-name="Path 105"
         d="M1610.632,761.373a2.63,2.63,0,0,1-1.447-.4,2.735,2.735,0,0,1-.981-1.1,3.581,3.581,0,0,1-.354-1.627v-.325a3.643,3.643,0,0,1,.354-1.633,2.876,2.876,0,0,1,.96-1.131,2.337,2.337,0,0,1,1.35-.413,2.559,2.559,0,0,1,1.344.336,2.209,2.209,0,0,1,.857.948,3.255,3.255,0,0,1,.3,1.438v.6h-4.43l-.012.259a3.026,3.026,0,0,0,.263,1.264,2.112,2.112,0,0,0,.72.874,1.855,1.855,0,0,0,1.078.319,2.714,2.714,0,0,0,1.06-.192,2.643,2.643,0,0,0,.807-.523l.3.484a3.011,3.011,0,0,1-2.168.822Zm-2-3.9h3.674V757.3a2.276,2.276,0,0,0-.216-1.007,1.668,1.668,0,0,0-.615-.7,1.751,1.751,0,0,0-.959-.254,1.6,1.6,0,0,0-.916.275,2.081,2.081,0,0,0-.665.751,2.827,2.827,0,0,0-.316,1.078Z"
         transform="translate(-1471.511 -752.034)"
         fill="#fff" />
    </g>
    <circle
       id="Ellipse_13"
       data-name="Ellipse 13"
       cx="4.5"
       cy="4.5"
       r="4.5"
       transform="translate(13 25.746)"
       fill="#42afff" />
    <circle
       id="Ellipse_14"
       data-name="Ellipse 14"
       cx="4.5"
       cy="4.5"
       r="4.5"
       transform="translate(87 25.746)"
       fill="#42afff" />
  </g>
  <path
     style="fill:#2b4eff;fill-opacity:1;stroke-width:0.152176"
     d="m 77.153132,41.747721 c -0.449316,-0.179647 -0.760879,-0.561526 -0.760879,-0.932602 0,-0.270655 0.39248,-0.777571 1.388078,-1.792798 l 1.388077,-1.415445 -1.011943,-1.264773 C 76.905783,34.778944 75.914342,32.81215 75.370609,30.8156 l -0.41443,-1.521758 -0.05124,-13.391471 c -0.03758,-9.8214615 -0.0043,-13.5599767 0.125006,-14.0235553 0.5607,-2.01086061 3.178817,-2.38885701 4.260347,-0.615097 0.283068,0.4642451 0.296544,0.8193468 0.297087,7.8287855 3.19e-4,4.0383658 0.03065,7.3424828 0.06741,7.3424828 0.03676,0 0.601715,-0.386716 1.25545,-0.859369 2.377864,-1.719203 4.877487,-2.607494 7.732169,-2.74778 2.040116,-0.100257 3.466443,0.103642 5.442184,0.777982 2.040702,0.696511 3.703148,1.728898 5.29094,3.285694 1.997748,1.958751 3.207188,3.960919 3.958938,6.553796 0.41009,1.414455 0.57891,4.840652 0.30885,6.268292 -0.94378,4.989254 -4.301387,9.143981 -8.891212,11.002041 -2.407869,0.974756 -2.797084,1.014686 -10.44671,1.071718 -3.8082,0.02839 -7.026718,0.01056 -7.152263,-0.03964 z m 14.684965,-5.011563 c 1.731155,-0.411564 3.07226,-1.198042 4.489186,-2.632643 1.453472,-1.471602 2.099796,-2.600415 2.592945,-4.52861 1.341602,-5.245607 -2.039186,-10.661659 -7.399605,-11.854238 -1.477411,-0.328694 -3.671166,-0.236036 -5.087093,0.214863 -1.990178,0.633768 -3.948304,2.099884 -5.081819,3.804935 -3.534341,5.316408 -1.335892,12.362665 4.573057,14.657117 1.859464,0.722031 3.826635,0.834666 5.913329,0.338576 z"
     id="path936" />
  <path
     style="fill:#2b4eff;fill-opacity:1;stroke-width:0.152176"
     d="m 111.09483,40.76995 c -2.45363,-0.430138 -4.04763,-1.937906 -4.83352,-4.572038 -0.32044,-1.074037 -0.48602,-11.72712 -0.18786,-12.086384 0.14704,-0.177171 0.72565,-0.219927 2.97625,-0.219927 2.77259,0 2.79431,0.0026 2.87184,0.342396 0.043,0.188317 0.0956,2.499487 0.11703,5.135933 0.0364,4.480552 0.0588,4.827275 0.34326,5.310246 0.42954,0.729252 0.99479,1.102008 1.81051,1.193951 1.27449,0.143654 2.56811,-0.620816 3.00898,-1.778169 0.0857,-0.225043 0.14161,-2.34651 0.13258,-5.033008 -0.012,-3.561143 0.0299,-4.706308 0.17981,-4.911248 0.1762,-0.240963 0.47234,-0.263162 3.0101,-0.225635 l 2.81468,0.04162 0.0394,8.048091 c 0.0289,5.898315 -0.007,8.104483 -0.13581,8.259203 -0.13886,0.167318 -0.68116,0.20246 -2.61419,0.169402 l -2.43899,-0.04171 -0.25173,-0.456528 c -0.33548,-0.608402 -0.87817,-0.661338 -1.63632,-0.159614 -1.31905,0.872905 -3.49343,1.283645 -5.20602,0.983416 z"
     id="path975" />
  <path
     style="fill:#2b4eff;fill-opacity:1;stroke-width:0.152176"
     d="m 90.160981,34.431204 c -1.504854,-0.538576 -2.472739,-1.555387 -2.90899,-3.056038 -0.423358,-1.456299 -0.05691,-2.884556 1.047512,-4.082707 0.843749,-0.915359 1.638906,-1.299793 2.871491,-1.388277 1.440998,-0.103445 2.421314,0.254396 3.412612,1.245695 0.914643,0.914643 1.287843,1.843028 1.285663,3.19826 -0.0046,2.870509 -3.036597,5.039245 -5.708288,4.083067 z"
     id="path1014" />
  <path
     style="fill:#2b4eff;fill-opacity:1;stroke-width:0.152176"
     d="m 127.40158,40.296152 c -0.26333,-0.263329 -0.26333,-15.95861 0,-16.22194 0.12703,-0.127031 0.93443,-0.182611 2.65272,-0.182611 h 2.4701 l 0.32508,0.456527 c 0.40811,0.573143 0.75205,0.575067 1.53406,0.0086 0.96014,-0.695527 1.97425,-0.97194 3.24107,-0.883415 1.96065,0.137011 3.90338,1.16147 3.69682,1.949447 -0.18931,0.722194 -2.00062,3.7163 -2.28006,3.768963 -0.15156,0.02856 -0.5282,-0.07087 -0.83696,-0.220962 -0.31903,-0.155081 -1.02128,-0.29704 -1.62663,-0.32882 -1.43186,-0.07517 -2.25658,0.340921 -2.81152,1.41849 -0.3824,0.742548 -0.38439,0.767345 -0.43249,5.388738 -0.0308,2.961538 -0.10645,4.712802 -0.20885,4.836186 -0.22187,0.267332 -5.45693,0.277226 -5.72334,0.01082 z"
     id="path1053" />
  <path
     style="fill:#2b4eff;fill-opacity:1;stroke-width:0.152176"
     d="m 148.84631,49.74212 c -2.15882,-0.358573 -4.18458,-1.443159 -5.19416,-2.780944 -0.77965,-1.033102 -1.15317,-1.947062 -1.36392,-3.337371 -0.27665,-1.825096 -0.35275,-1.775459 2.72203,-1.775459 2.80796,0 2.82585,0.0055 3.00154,0.927558 0.23845,1.251407 0.88884,1.866333 2.26663,2.143033 1.19128,0.239241 2.54252,-0.01452 3.15843,-0.593133 1.25944,-1.183173 1.12643,-3.097194 -0.26098,-3.755562 -0.35932,-0.170511 -1.23043,-0.315532 -2.44973,-0.407825 -1.24732,-0.09441 -2.29914,-0.271795 -3.08647,-0.520512 -2.87894,-0.909459 -4.84184,-3.014301 -5.43913,-5.832449 -1.17483,-5.54315 2.47552,-10.106826 8.37649,-10.472294 0.99236,-0.06146 1.68541,-0.01447 2.51182,0.170317 0.62772,0.140358 1.82611,0.277048 2.66307,0.303754 1.28944,0.04114 3.77658,0.50631 4.92064,0.920297 0.13614,0.04927 -0.13747,0.481942 -0.82929,1.311389 l -1.03247,1.237865 0.34068,0.550002 c 1.47545,2.38201 1.60362,4.545823 0.41206,6.95678 -0.36894,0.746506 -0.81008,1.342374 -1.3782,1.861601 -0.45956,0.420015 -0.83557,0.801189 -0.83557,0.847052 0,0.04586 0.19788,0.185718 0.43974,0.310787 0.69089,0.357272 1.81895,1.569965 2.2554,2.424609 0.79419,1.555169 0.62774,4.188123 -0.36971,5.848009 -0.66244,1.102397 -0.97919,1.43629 -2.01428,2.123346 -2.11523,1.404012 -5.77782,2.043549 -8.81462,1.53915 z m 3.75079,-14.825036 c 1.24668,-0.520897 1.85466,-1.541156 1.85466,-3.112341 0,-1.194871 -0.33626,-2.017764 -1.0977,-2.686317 -1.09478,-0.961231 -2.57946,-1.062133 -3.87181,-0.263137 -1.56502,0.967577 -2.02796,3.094414 -1.02622,4.714686 0.83479,1.350241 2.68953,1.953598 4.14107,1.347109 z"
     id="path1092" />
  <path
     style="fill:#2b4eff;fill-opacity:1;stroke-width:0.152176"
     d="m 56.335482,41.209207 c -0.100436,-0.100436 -0.182611,-0.567549 -0.182611,-1.038029 v -0.855417 l 3.13809,-4.63052 c 1.725949,-2.546786 3.171396,-4.716272 3.212103,-4.82108 0.04071,-0.104808 0.03108,-0.361605 -0.02139,-0.570659 l -0.0954,-0.3801 h -2.518005 c -1.444713,0 -2.643471,-0.06715 -2.812353,-0.15753 -0.27061,-0.144825 -0.294348,-0.33873 -0.294348,-2.404377 0,-1.544647 0.05707,-2.303919 0.182611,-2.429459 0.219509,-0.219508 13.912979,-0.262082 14.256826,-0.04432 0.291202,0.184417 0.403557,1.552912 0.164861,2.008031 -0.105167,0.200521 -1.516741,2.297695 -3.136832,4.660388 -1.620092,2.362692 -2.945621,4.420489 -2.945621,4.572882 0,0.589312 0.264208,0.642302 3.202542,0.642302 2.555487,0 2.862337,0.02764 3.089168,0.27829 0.364171,0.402403 0.374984,4.750812 0.01272,5.113081 -0.210856,0.21085 -1.116159,0.239133 -7.654449,0.239133 -5.564561,0 -7.460886,-0.04558 -7.59792,-0.182611 z"
     id="path1131" />
  <path
     style="fill:#2b4eff;fill-opacity:1;stroke-width:0.152176"
     d="m 48.4244,41.692571 c -1.845777,-0.253425 -3.59231,-1.387737 -4.329184,-2.811653 -0.66971,-1.294131 -0.762481,-1.965181 -0.836377,-6.049853 -0.08125,-4.491072 0.109086,-4.03523 -1.714845,-4.107003 l -0.989143,-0.03892 -0.04191,-2.396769 -0.04191,-2.396769 h 1.132737 c 1.710995,0 1.614156,0.132816 1.614156,-2.213849 0,-1.456179 0.05371,-2.063873 0.19022,-2.152224 0.216896,-0.140379 5.912673,-0.795568 6.087032,-0.700195 0.06277,0.03433 0.114132,1.012637 0.114132,2.174002 0,1.161366 0.06597,2.285102 0.146611,2.497191 0.144606,0.380343 0.172187,0.386203 2.016329,0.428391 l 1.869718,0.04277 0.04382,2.054373 c 0.06331,2.967896 0.223514,2.739165 -1.918486,2.739165 -1.19148,0 -1.854023,0.06125 -1.975386,0.182611 -0.129594,0.129593 -0.182543,1.046352 -0.182375,3.157648 2.74e-4,3.446567 0.111438,3.874383 1.103705,4.247614 0.498086,0.187351 0.693163,0.184621 1.521758,-0.02129 0.723085,-0.17969 0.992613,-0.193791 1.126771,-0.05895 0.197099,0.198105 1.269331,3.735652 1.269331,4.187823 0,0.214044 -0.227659,0.371717 -0.875011,0.606022 -1.795225,0.649766 -3.618202,0.865124 -5.331702,0.62986 z"
     id="path1170" />
  <path
     style="fill:#2b4eff;fill-opacity:1;stroke-width:0.152176"
     d="m 31.462347,41.227453 c -0.248495,-0.144734 -0.266308,-0.712396 -0.266308,-8.486782 0,-6.277288 0.04503,-8.3767 0.182611,-8.514283 0.257419,-0.257418 5.768744,-0.257418 6.026162,0 0.26348,0.263479 0.26348,16.719339 0,16.982819 -0.232019,0.23202 -5.547417,0.248341 -5.942465,0.01825 z"
     id="path1209" />
  <path
     style="fill:#2b4eff;fill-opacity:1;stroke-width:0.152176"
     d="m 2.282637,41.740386 c -0.4405593,-0.16199 -0.760879,-0.551515 -0.760879,-0.925267 0,-0.270282 0.3886022,-0.773616 1.3695822,-1.773938 0.7532703,-0.768122 1.3695823,-1.465991 1.3695823,-1.55082 0,-0.08483 -0.178612,-0.320251 -0.3969155,-0.523159 C 2.7043904,35.889371 1.040581,32.847552 0.54083161,30.891688 0.40182503,30.347659 0.22581588,29.046556 0.14970018,28.000348 -0.03114883,25.514582 -0.03464174,2.8437473 0.14570448,2.0661508 0.64033185,-0.0665274 3.1692303,-0.57846063 4.3745372,1.2100943 l 0.3429127,0.508848 v 7.3580222 c 0,4.0469125 0.051359,7.3555315 0.1141318,7.3524875 0.062773,-0.003 0.5592461,-0.345626 1.1032746,-0.761291 0.5440285,-0.415667 1.5369756,-1.02505 2.2065491,-1.354187 2.4682106,-1.213277 4.4241786,-1.618523 7.1903586,-1.489731 2.25051,0.104783 3.780547,0.496194 5.744585,1.469568 7.052752,3.495336 10.058345,11.912084 6.775799,18.974685 -1.086145,2.336909 -2.514101,4.113841 -4.47618,5.570114 -2.253588,1.672634 -4.623353,2.576806 -7.482068,2.854751 -1.57779,0.153404 -13.2126281,0.193601 -13.611263,0.04702 z m 14.684965,-5.004972 c 3.471033,-0.822374 6.322054,-3.72552 7.162647,-7.293601 0.382337,-1.622912 0.233783,-3.889566 -0.360713,-5.503817 -1.053522,-2.860652 -3.272014,-5.02948 -6.117143,-5.980204 -1.366327,-0.45657 -3.827587,-0.573869 -5.208974,-0.248249 C 7.5306532,18.867575 4.3191545,23.3884 4.8768142,28.361047 5.539658,34.27162 11.102957,38.124893 16.967602,36.735414 Z"
     id="path1248" />
  <path
     style="fill:#2b4eff;fill-opacity:1;stroke-width:0.152176"
     d="m 16.511075,34.562193 c -2.144189,-0.566109 -3.579368,-2.574942 -3.383427,-4.735813 0.141687,-1.562548 0.979618,-2.769026 2.424687,-3.491136 3.484864,-1.741407 7.253644,1.495279 6.133422,5.267477 -0.286914,0.966145 -1.246121,2.073704 -2.225955,2.570223 -0.799894,0.405337 -2.19184,0.589082 -2.948727,0.389249 z"
     id="path1287" />
  <path
     style="fill:#2b4eff;fill-opacity:1;stroke-width:0.152176"
     d="m 33.051983,22.090383 c -3.53234,-1.260549 -2.802147,-5.813494 0.99548,-6.207079 1.286423,-0.133324 2.10779,0.141093 2.95185,0.986204 1.041259,1.042556 1.304432,2.250477 0.754261,3.461944 -0.746766,1.644369 -2.834228,2.425317 -4.701591,1.758931 z"
     id="path1326" />
</svg>
